<svg width="204" height="171" viewBox="0 0 204 171" fill="none" xmlns="http://www.w3.org/2000/svg">
<mask id="mask0_218_37776" style="mask-type:luminance" maskUnits="userSpaceOnUse" x="0" y="0" width="204" height="171">
<path d="M203.167 0H0V171H203.167V0Z" fill="white"/>
</mask>
<g mask="url(#mask0_218_37776)">
<path d="M122.175 56.318H42.3619C37.8099 56.318 34.1045 60.0248 34.1045 64.5784V83.4641C34.1045 88.0177 37.8099 91.7245 42.3619 91.7245H122.175C126.727 91.7245 130.433 88.0177 130.433 83.4641V64.5784C130.433 60.0248 126.727 56.318 122.175 56.318Z" fill="#808081"/>
</g>
<mask id="mask1_218_37776" style="mask-type:luminance" maskUnits="userSpaceOnUse" x="35" y="57" width="94" height="34">
<path d="M42.3617 57.8949C38.6888 57.8949 35.6802 60.9046 35.6802 64.5788V83.4644C35.6802 87.1386 38.6823 90.1484 42.3617 90.1484H122.175C125.848 90.1484 128.856 87.1452 128.856 83.4644V64.5788C128.856 60.9046 125.848 57.8949 122.175 57.8949H42.3617Z" fill="white"/>
</mask>
<g mask="url(#mask1_218_37776)">
<path d="M128.856 57.8948H35.6865V90.1417H128.856V57.8948Z" fill="url(#paint0_linear_218_37776)"/>
</g>
<mask id="mask2_218_37776" style="mask-type:luminance" maskUnits="userSpaceOnUse" x="0" y="0" width="204" height="171">
<path d="M203.167 0H0V171H203.167V0Z" fill="white"/>
</mask>
<g mask="url(#mask2_218_37776)">
<path d="M49.4469 70.728C47.109 70.6107 45.5331 72.513 45.5331 74.8582C45.5331 77.2295 47.1025 78.9884 49.4469 78.9884C51.4917 78.9884 52.4685 77.8158 53.0025 76.8191H58.0104C57.1248 80.5063 53.8361 83.5225 49.3883 83.5225C44.413 83.5225 40.5903 79.6594 40.5903 74.8256C40.5903 70.0505 44.3544 66.1874 49.2711 66.1874C53.6277 66.1874 57.1508 69.0277 57.9844 73.0081H53.0091C52.4685 71.9006 51.4917 70.728 49.4469 70.728ZM58.9286 66.7476H63.8453V83.0014H58.9286V66.7476ZM58.9286 61.3275H63.8453V65.0147H58.9286V61.3275ZM85.9412 82.9949V74.3566C85.9412 73.0406 85.9412 70.754 83.4209 70.754C80.6988 70.754 80.6988 73.2165 80.6988 74.1221V82.9949H75.7822V74.1546C75.7822 73.2752 75.7821 70.7606 73.3205 70.7606C70.5333 70.7606 70.5333 73.3989 70.5333 74.3631V83.0014H65.6166V66.7476H70.2077V68.474H70.2663C70.6506 67.803 71.7185 66.1874 74.7988 66.1874C76.251 66.1874 78.2372 66.6825 79.5397 69.0863C80.5491 67.5033 82.2357 66.1874 84.7559 66.1874C85.9086 66.1874 87.7515 66.4479 89.08 67.829C90.6169 69.4381 90.8578 70.5195 90.8578 74.1221V82.9949H85.9412ZM104.905 82.9949V81.2359H104.846C104.019 82.819 101.974 83.5486 100.047 83.5486C94.8303 83.5486 91.7826 79.5096 91.7826 74.8517C91.7826 69.5228 95.6638 66.1808 100.047 66.1808C102.743 66.1808 104.253 67.4707 104.846 68.4674H104.905V66.7411H109.821V82.9949H104.905ZM100.756 70.728C97.9431 70.728 96.6993 73.0732 96.6993 74.9168C96.6993 76.4412 97.8259 79.0145 100.789 79.0145C103.869 79.0145 104.905 76.4347 104.905 74.8582C104.905 72.8973 103.544 70.728 100.756 70.728ZM117.076 70.083C116.04 70.083 115.682 70.728 115.682 71.1645C115.682 72.0439 116.9 72.539 118.202 72.9234C120.99 73.6856 123.946 74.5064 123.946 78.0178C123.946 81.4444 120.892 83.5486 117.252 83.5486C114.764 83.5486 111 82.4346 110.557 78.1611H115.448C115.656 79.6529 117.108 79.6529 117.317 79.6529C118.144 79.6529 119.036 79.1838 119.036 78.3956C119.036 77.1383 117.818 76.9885 114.679 75.7898C112.55 75.1188 110.772 73.7377 110.772 71.5423C110.772 68.3176 113.735 66.1808 117.141 66.1808C119.303 66.1808 123.035 67.0277 123.451 71.3078H118.626C118.587 70.9625 118.528 70.083 117.076 70.083Z" fill="white"/>
</g>
<mask id="mask3_218_37776" style="mask-type:luminance" maskUnits="userSpaceOnUse" x="0" y="0" width="204" height="171">
<path d="M203.167 0H0V171H203.167V0Z" fill="white"/>
</mask>
<g mask="url(#mask3_218_37776)">
<path d="M122.175 17.5238H103.296C98.744 17.5238 95.0386 21.2306 95.0386 25.7842V44.6699C95.0386 49.2235 98.744 52.9303 103.296 52.9303H122.175C126.727 52.9303 130.432 49.2235 130.432 44.6699V25.7842C130.432 21.2306 126.727 17.5238 122.175 17.5238Z" fill="#277FC2"/>
</g>
<mask id="mask4_218_37776" style="mask-type:luminance" maskUnits="userSpaceOnUse" x="96" y="19" width="33" height="33">
<path d="M103.303 19.1007C99.6302 19.1007 96.6216 22.1104 96.6216 25.7846V44.6703C96.6216 48.3445 99.6302 51.3542 103.303 51.3542H122.182C125.855 51.3542 128.863 48.3445 128.863 44.6703V25.7846C128.863 22.1104 125.855 19.1007 122.182 19.1007H103.303Z" fill="white"/>
</mask>
<g mask="url(#mask4_218_37776)">
<path d="M128.857 19.1072H96.6216V51.3541H128.857V19.1072Z" fill="url(#paint1_linear_218_37776)"/>
</g>
<mask id="mask5_218_37776" style="mask-type:luminance" maskUnits="userSpaceOnUse" x="0" y="0" width="204" height="171">
<path d="M203.167 0H0V171H203.167V0Z" fill="white"/>
</mask>
<g mask="url(#mask5_218_37776)">
<path d="M160.806 56.318H141.927C137.375 56.318 133.669 60.0248 133.669 64.5784V83.4641C133.669 88.0177 137.375 91.7245 141.927 91.7245H160.806C165.358 91.7245 169.063 88.0177 169.063 83.4641V64.5784C169.063 60.0248 165.358 56.318 160.806 56.318Z" fill="#277FC2"/>
</g>
<mask id="mask6_218_37776" style="mask-type:luminance" maskUnits="userSpaceOnUse" x="135" y="57" width="33" height="34">
<path d="M141.933 57.8949C138.26 57.8949 135.251 60.9046 135.251 64.5788V83.4644C135.251 87.1386 138.26 90.1484 141.933 90.1484H160.812C164.485 90.1484 167.493 87.1452 167.493 83.4644V64.5788C167.493 60.9046 164.485 57.8949 160.812 57.8949H141.933Z" fill="white"/>
</mask>
<g mask="url(#mask6_218_37776)">
<path d="M167.487 57.8949H135.251V90.1418H167.487V57.8949Z" fill="url(#paint2_linear_218_37776)"/>
</g>
<mask id="mask7_218_37776" style="mask-type:luminance" maskUnits="userSpaceOnUse" x="0" y="0" width="204" height="171">
<path d="M203.167 0H0V171H203.167V0Z" fill="white"/>
</mask>
<g mask="url(#mask7_218_37776)">
<path d="M122.175 95.2168H103.296C98.744 95.2168 95.0386 98.9236 95.0386 103.477V122.363C95.0386 126.917 98.744 130.623 103.296 130.623H122.175C126.727 130.623 130.432 126.917 130.432 122.363V103.477C130.432 98.9236 126.727 95.2168 122.175 95.2168Z" fill="#277FC2"/>
</g>
<mask id="mask8_218_37776" style="mask-type:luminance" maskUnits="userSpaceOnUse" x="96" y="96" width="33" height="34">
<path d="M103.303 96.7926C99.6302 96.7926 96.6216 99.8023 96.6216 103.477V122.362C96.6216 126.036 99.6302 129.046 103.303 129.046H122.182C125.855 129.046 128.863 126.036 128.863 122.362V103.477C128.863 99.8023 125.855 96.7926 122.182 96.7926H103.303Z" fill="white"/>
</mask>
<g mask="url(#mask8_218_37776)">
<path d="M128.857 96.7926H96.6216V129.04H128.857V96.7926Z" fill="url(#paint3_linear_218_37776)"/>
</g>
<path d="M137.062 45.7319C137.648 45.7319 138.214 45.8818 138.768 46.1814C139.322 46.4811 139.758 46.9111 140.064 47.4648C140.377 48.0251 140.526 48.6048 140.526 49.2042C140.526 49.8035 140.377 50.3768 140.07 50.9305C139.764 51.4843 139.335 51.9142 138.788 52.2139C138.241 52.5201 137.661 52.6699 137.062 52.6699C136.463 52.6699 135.883 52.5201 135.336 52.2139C134.783 51.9077 134.359 51.4778 134.053 50.9305C133.747 50.3768 133.591 49.8035 133.591 49.2042C133.591 48.5983 133.747 48.0185 134.06 47.4648C134.372 46.9111 134.802 46.4811 135.356 46.1814C135.909 45.8818 136.476 45.7319 137.062 45.7319ZM137.062 46.3052C136.573 46.3052 136.098 46.429 135.636 46.6831C135.173 46.9306 134.815 47.2889 134.555 47.758C134.294 48.2205 134.164 48.7091 134.164 49.2107C134.164 49.7123 134.294 50.1879 134.548 50.6504C134.802 51.1064 135.16 51.4647 135.623 51.7188C136.085 51.9729 136.56 52.1032 137.062 52.1032C137.563 52.1032 138.039 51.9729 138.501 51.7188C138.963 51.4647 139.322 51.1064 139.576 50.6504C139.829 50.1944 139.96 49.7123 139.96 49.2107C139.96 48.7091 139.829 48.227 139.569 47.758C139.309 47.2954 138.95 46.9371 138.488 46.6831C138.026 46.429 137.544 46.3052 137.062 46.3052ZM135.538 51.126V47.3866H136.821C137.257 47.3866 137.576 47.4192 137.772 47.4909C137.967 47.5625 138.123 47.6798 138.241 47.8492C138.358 48.0185 138.416 48.2009 138.416 48.3964C138.416 48.67 138.319 48.9045 138.123 49.1065C137.928 49.3084 137.667 49.4257 137.348 49.4452C137.479 49.4973 137.589 49.569 137.667 49.6407C137.817 49.7905 138 50.0315 138.221 50.3833L138.677 51.1129H137.941L137.609 50.5266C137.348 50.0641 137.14 49.7709 136.977 49.6537C136.866 49.569 136.704 49.5234 136.495 49.5234H136.144V51.1129H135.538V51.126ZM136.137 49.0218H136.866C137.218 49.0218 137.453 48.9697 137.583 48.8654C137.713 48.7612 137.772 48.6244 137.772 48.455C137.772 48.3443 137.739 48.2465 137.68 48.1553C137.622 48.0707 137.531 48.0055 137.426 47.9599C137.316 47.9143 137.114 47.8948 136.821 47.8948H136.137V49.0218Z" fill="#808081"/>
<defs>
<linearGradient id="paint0_linear_218_37776" x1="82.2625" y1="90.1417" x2="82.2625" y2="57.894" gradientUnits="userSpaceOnUse">
<stop stop-color="#808181"/>
<stop offset="0.495" stop-color="#808181"/>
<stop offset="0.6556" stop-color="#828282"/>
<stop offset="0.7458" stop-color="#888888"/>
<stop offset="0.8186" stop-color="#929292"/>
<stop offset="0.882" stop-color="#A2A1A1"/>
<stop offset="0.9394" stop-color="#B9B7B7"/>
<stop offset="0.9918" stop-color="#D6D5D5"/>
<stop offset="1" stop-color="#DCDBDB"/>
</linearGradient>
<linearGradient id="paint1_linear_218_37776" x1="112.731" y1="51.3515" x2="112.731" y2="19.1036" gradientUnits="userSpaceOnUse">
<stop stop-color="#277EC2"/>
<stop offset="0.6" stop-color="#277EC2"/>
<stop offset="0.6605" stop-color="#3983C4"/>
<stop offset="0.7668" stop-color="#5A90CC"/>
<stop offset="0.9053" stop-color="#86A9D9"/>
<stop offset="1" stop-color="#A8BFE3"/>
</linearGradient>
<linearGradient id="paint2_linear_218_37776" x1="151.36" y1="90.1418" x2="151.36" y2="57.8941" gradientUnits="userSpaceOnUse">
<stop stop-color="#277EC2"/>
<stop offset="0.6" stop-color="#277EC2"/>
<stop offset="0.6605" stop-color="#3983C4"/>
<stop offset="0.7668" stop-color="#5A90CC"/>
<stop offset="0.9053" stop-color="#86A9D9"/>
<stop offset="1" stop-color="#A8BFE3"/>
</linearGradient>
<linearGradient id="paint3_linear_218_37776" x1="112.731" y1="129.04" x2="112.731" y2="96.7927" gradientUnits="userSpaceOnUse">
<stop stop-color="#277EC2"/>
<stop offset="0.6" stop-color="#277EC2"/>
<stop offset="0.6605" stop-color="#3983C4"/>
<stop offset="0.7668" stop-color="#5A90CC"/>
<stop offset="0.9053" stop-color="#86A9D9"/>
<stop offset="1" stop-color="#A8BFE3"/>
</linearGradient>
</defs>
</svg>
